<svg viewBox="0 0 330 200" xmlns="http://www.w3.org/2000/svg"><g><g><g><g><g><line x1="60" y1="177" x2="55" y2="177" style="visibility: inherit;" fill="rgb(0, 0, 0)" stroke="rgb(204, 204, 204)" stroke-width="1px"></line><line x1="60" y1="162.25" x2="55" y2="162.25" style="visibility: inherit;" fill="rgb(0, 0, 0)" stroke="rgb(204, 204, 204)" stroke-width="1px"></line><line x1="60" y1="147.5" x2="55" y2="147.5" style="visibility: inherit;" fill="rgb(0, 0, 0)" stroke="rgb(204, 204, 204)" stroke-width="1px"></line><line x1="60" y1="132.75" x2="55" y2="132.75" style="visibility: inherit;" fill="rgb(0, 0, 0)" stroke="rgb(204, 204, 204)" stroke-width="1px"></line><line x1="60" y1="118.00000000000001" x2="55" y2="118.00000000000001" style="visibility: inherit;" fill="rgb(0, 0, 0)" stroke="rgb(204, 204, 204)" stroke-width="1px"></line><line x1="60" y1="103.25" x2="55" y2="103.25" style="visibility: inherit;" fill="rgb(0, 0, 0)" stroke="rgb(204, 204, 204)" stroke-width="1px"></line><line x1="60" y1="88.5" x2="55" y2="88.5" style="visibility: inherit;" fill="rgb(0, 0, 0)" stroke="rgb(204, 204, 204)" stroke-width="1px"></line><line x1="60" y1="73.75000000000001" x2="55" y2="73.75000000000001" style="visibility: inherit;" fill="rgb(0, 0, 0)" stroke="rgb(204, 204, 204)" stroke-width="1px"></line><line x1="60" y1="59.00000000000001" x2="55" y2="59.00000000000001" style="visibility: inherit;" fill="rgb(0, 0, 0)" stroke="rgb(204, 204, 204)" stroke-width="1px"></line><line x1="60" y1="44.25" x2="55" y2="44.25" style="visibility: inherit;" fill="rgb(0, 0, 0)" stroke="rgb(204, 204, 204)" stroke-width="1px"></line><line x1="60" y1="29.500000000000032" x2="55" y2="29.500000000000032" style="visibility: inherit;" fill="rgb(0, 0, 0)" stroke="rgb(204, 204, 204)" stroke-width="1px"></line><line x1="60" y1="14.750000000000007" x2="55" y2="14.750000000000007" style="visibility: inherit;" fill="rgb(0, 0, 0)" stroke="rgb(204, 204, 204)" stroke-width="1px"></line><line x1="60" y1="0" x2="55" y2="0" style="visibility: inherit;" fill="rgb(0, 0, 0)" stroke="rgb(204, 204, 204)" stroke-width="1px"></line></g><g transform="translate(50, 0)"><text x="0" y="177" dx="0em" dy="0.3em" style="text-anchor: end; visibility: hidden; font-family: Roboto, sans-serif; font-size: 12px; font-weight: 200;" fill="rgb(255, 255, 255)" stroke="none" stroke-width="1px">0.025</text><text x="0" y="162.25" dx="0em" dy="0.3em" style="text-anchor: end; visibility: inherit; font-family: Roboto, sans-serif; font-size: 12px; font-weight: 200;" fill="rgb(255, 255, 255)" stroke="none" stroke-width="1px">0.03</text><text x="0" y="147.5" dx="0em" dy="0.3em" style="text-anchor: end; visibility: hidden; font-family: Roboto, sans-serif; font-size: 12px; font-weight: 200;" fill="rgb(255, 255, 255)" stroke="none" stroke-width="1px">0.035</text><text x="0" y="132.75" dx="0em" dy="0.3em" style="text-anchor: end; visibility: inherit; font-family: Roboto, sans-serif; font-size: 12px; font-weight: 200;" fill="rgb(255, 255, 255)" stroke="none" stroke-width="1px">0.04</text><text x="0" y="118.00000000000001" dx="0em" dy="0.3em" style="text-anchor: end; visibility: hidden; font-family: Roboto, sans-serif; font-size: 12px; font-weight: 200;" fill="rgb(255, 255, 255)" stroke="none" stroke-width="1px">0.045</text><text x="0" y="103.25" dx="0em" dy="0.3em" style="text-anchor: end; visibility: inherit; font-family: Roboto, sans-serif; font-size: 12px; font-weight: 200;" fill="rgb(255, 255, 255)" stroke="none" stroke-width="1px">0.05</text><text x="0" y="88.5" dx="0em" dy="0.3em" style="text-anchor: end; visibility: hidden; font-family: Roboto, sans-serif; font-size: 12px; font-weight: 200;" fill="rgb(255, 255, 255)" stroke="none" stroke-width="1px">0.055</text><text x="0" y="73.75000000000001" dx="0em" dy="0.3em" style="text-anchor: end; visibility: inherit; font-family: Roboto, sans-serif; font-size: 12px; font-weight: 200;" fill="rgb(255, 255, 255)" stroke="none" stroke-width="1px">0.06</text><text x="0" y="59.00000000000001" dx="0em" dy="0.3em" style="text-anchor: end; visibility: hidden; font-family: Roboto, sans-serif; font-size: 12px; font-weight: 200;" fill="rgb(255, 255, 255)" stroke="none" stroke-width="1px">0.065</text><text x="0" y="44.25" dx="0em" dy="0.3em" style="text-anchor: end; visibility: inherit; font-family: Roboto, sans-serif; font-size: 12px; font-weight: 200;" fill="rgb(255, 255, 255)" stroke="none" stroke-width="1px">0.07</text><text x="0" y="29.500000000000032" dx="0em" dy="0.3em" style="text-anchor: end; visibility: hidden; font-family: Roboto, sans-serif; font-size: 12px; font-weight: 200;" fill="rgb(255, 255, 255)" stroke="none" stroke-width="1px">0.075</text><text x="0" y="14.750000000000007" dx="0em" dy="0.3em" style="text-anchor: end; visibility: inherit; font-family: Roboto, sans-serif; font-size: 12px; font-weight: 200;" fill="rgb(255, 255, 255)" stroke="none" stroke-width="1px">0.08</text><text x="0" y="0" dx="0em" dy="0.3em" style="text-anchor: end; visibility: hidden; font-family: Roboto, sans-serif; font-size: 12px; font-weight: 200;" fill="rgb(255, 255, 255)" stroke="none" stroke-width="1px">0.085</text></g><line x1="60" y1="0" x2="60" y2="177" fill="rgb(0, 0, 0)" stroke="rgb(204, 204, 204)" stroke-width="1px"></line></g></g><g transform="translate(60, 0)" clip-path="url(#clip_0)"><clipPath id="clip_0"><rect width="270" height="177"></rect></clipPath><g><g><g><line x1="0" y1="0" x2="0" y2="177" fill="rgb(0, 0, 0)" stroke="rgb(189, 189, 189)" stroke-width="1px" opacity="0.25"></line><line x1="22.5" y1="0" x2="22.5" y2="177" fill="rgb(0, 0, 0)" stroke="rgb(189, 189, 189)" stroke-width="1px" opacity="0.25"></line><line x1="45" y1="0" x2="45" y2="177" fill="rgb(0, 0, 0)" stroke="rgb(189, 189, 189)" stroke-width="1px" opacity="0.25"></line><line x1="67.5" y1="0" x2="67.5" y2="177" fill="rgb(0, 0, 0)" stroke="rgb(189, 189, 189)" stroke-width="1px" opacity="0.25"></line><line x1="90" y1="0" x2="90" y2="177" fill="rgb(0, 0, 0)" stroke="rgb(189, 189, 189)" stroke-width="1px" opacity="0.25"></line><line x1="112.5" y1="0" x2="112.5" y2="177" fill="rgb(0, 0, 0)" stroke="rgb(189, 189, 189)" stroke-width="1px" opacity="0.25"></line><line x1="135" y1="0" x2="135" y2="177" fill="rgb(0, 0, 0)" stroke="rgb(189, 189, 189)" stroke-width="1px" opacity="0.25"></line><line x1="157.5" y1="0" x2="157.5" y2="177" fill="rgb(0, 0, 0)" stroke="rgb(189, 189, 189)" stroke-width="1px" opacity="0.25"></line><line x1="180" y1="0" x2="180" y2="177" fill="rgb(0, 0, 0)" stroke="rgb(189, 189, 189)" stroke-width="1px" opacity="0.25"></line><line x1="202.5" y1="0" x2="202.5" y2="177" fill="rgb(0, 0, 0)" stroke="rgb(189, 189, 189)" stroke-width="1px" opacity="0.25"></line><line x1="225" y1="0" x2="225" y2="177" fill="rgb(0, 0, 0)" stroke="rgb(189, 189, 189)" stroke-width="1px" opacity="0.25"></line><line x1="247.5" y1="0" x2="247.5" y2="177" fill="rgb(0, 0, 0)" stroke="rgb(189, 189, 189)" stroke-width="1px" opacity="0.25"></line><line x1="270" y1="0" x2="270" y2="177" fill="rgb(0, 0, 0)" stroke="rgb(189, 189, 189)" stroke-width="1px" opacity="0.25"></line></g><g><line x1="0" y1="177" x2="270" y2="177" fill="rgb(0, 0, 0)" stroke="rgb(189, 189, 189)" stroke-width="1px" opacity="0.25"></line><line x1="0" y1="162.25" x2="270" y2="162.25" fill="rgb(0, 0, 0)" stroke="rgb(189, 189, 189)" stroke-width="1px" opacity="0.25"></line><line x1="0" y1="147.5" x2="270" y2="147.5" fill="rgb(0, 0, 0)" stroke="rgb(189, 189, 189)" stroke-width="1px" opacity="0.25"></line><line x1="0" y1="132.75" x2="270" y2="132.75" fill="rgb(0, 0, 0)" stroke="rgb(189, 189, 189)" stroke-width="1px" opacity="0.25"></line><line x1="0" y1="118.00000000000001" x2="270" y2="118.00000000000001" fill="rgb(0, 0, 0)" stroke="rgb(189, 189, 189)" stroke-width="1px" opacity="0.25"></line><line x1="0" y1="103.25" x2="270" y2="103.25" fill="rgb(0, 0, 0)" stroke="rgb(189, 189, 189)" stroke-width="1px" opacity="0.25"></line><line x1="0" y1="88.5" x2="270" y2="88.5" fill="rgb(0, 0, 0)" stroke="rgb(189, 189, 189)" stroke-width="1px" opacity="0.25"></line><line x1="0" y1="73.75000000000001" x2="270" y2="73.75000000000001" fill="rgb(0, 0, 0)" stroke="rgb(189, 189, 189)" stroke-width="1px" opacity="0.25"></line><line x1="0" y1="59.00000000000001" x2="270" y2="59.00000000000001" fill="rgb(0, 0, 0)" stroke="rgb(189, 189, 189)" stroke-width="1px" opacity="0.25"></line><line x1="0" y1="44.25" x2="270" y2="44.25" fill="rgb(0, 0, 0)" stroke="rgb(189, 189, 189)" stroke-width="1px" opacity="0.25"></line><line x1="0" y1="29.500000000000032" x2="270" y2="29.500000000000032" fill="rgb(0, 0, 0)" stroke="rgb(189, 189, 189)" stroke-width="1px" opacity="0.25"></line><line x1="0" y1="14.750000000000007" x2="270" y2="14.750000000000007" fill="rgb(0, 0, 0)" stroke="rgb(189, 189, 189)" stroke-width="1px" opacity="0.25"></line><line x1="0" y1="0" x2="270" y2="0" fill="rgb(0, 0, 0)" stroke="rgb(189, 189, 189)" stroke-width="1px" opacity="0.25"></line></g></g></g><g><g><line x1="0" y1="250.74999999999997" x2="270" y2="250.74999999999997" fill="rgb(0, 0, 0)" stroke="rgb(153, 153, 153)" stroke-width="1.5px"></line></g></g><g><g><line x1="22.5" y1="0" x2="22.5" y2="177" fill="rgb(0, 0, 0)" stroke="rgb(153, 153, 153)" stroke-width="1.5px"></line></g></g><g><g><g><g><g><path stroke="rgb(255, 112, 67)" stroke-width="2px" d="M24.75,156.35176484286785L27,146.5183131331578L29.25,135.4807596887861L31.5,123.38077161795295L33.75,110.38497022289647L36,96.66448652487001L38.25,82.37902418485078L40.5,67.66714044788137L42.75,52.642275051196414L45,37.39316158284013L47.25,28.30389053730493L49.5,22.874403545826926L51.75,19.629135835953313L54,17.69148250995368L56.25,16.53859701404538L58.5,15.85788885641347L60.75,15.462196295994588L63,15.239366553859076L65.25,15.122177399377264L67.5,15.070287730848607L69.75,15.059508341449641L72,15.075336866039573L74.25,15.109055131201668L76.5,15.155450098723227L78.75,15.211376452307759L81,15.274955818544555L83.25,15.345061176938332L85.5,15.421007521252864L87.75,15.502383844617183L90,15.588943540256135L92.25,15.680538642158815L94.5,15.777080369377954L96.75,15.878506660765751L99,15.984789070734529L101.25,16.095892948182506L103.5,16.211815085576855L105.75,16.33253597487228L108,16.458043911143584L110.25,16.58834066305847L112.5,16.723418500093107L114.75,16.863263992223555L117,17.00786908141978L119.25,17.15723772453931L121.5,17.31135471232023L123.75,17.47021971088684L126,17.63382372822613L128.25,17.80215257744379L130.5,17.97521532977246L132.75,18.152991052895974L135,18.335475979109155L137.25,18.522667847788995L139.5,18.714556510876225L141.75,18.91113587953517L144,19.112384717094315L146.25,19.3183078649209L148.5,19.528899436150052L150.75,19.744138315292684L153,19.964029416425554L155.25,20.188558104624477L157.5,20.417706807249886L159.75,20.651473772403083L162,20.88984915725977L164.25,21.132818264440253L166.5,21.380381067201853L168.75,21.63251996612872L171,21.88922440157131L173.25,22.150488037740004L175.5,22.416298281475814L177.75,22.686647576883413L180,22.961513807055276L182.25,23.240901285217355L184.5,23.524786224249684L186.75,23.81316314356549L189,24.10601117144246L191.25,24.40333536821734L193.5,24.705112395037027L195.75,25.011328248589553L198,25.321965735202603L200.25,25.637032122043134L202.5,25.956496602670754L204.75,26.280340693221323L207,26.608562095061448L209.25,26.94115942901105L211.5,27.278096700821667L213.75,27.619369897314535L216,27.96497661058226L218.25,28.314880229140066L220.5,28.66907636946725L222.75,29.027553609766297L225,29.390287513588515L227.25,29.757272210749793L229.5,30.12849538745452L231.75,30.50393207205514L234,30.88358486493339L236.25,31.26742015957778L238.5,31.655417792081508L240.75,32.04757445578554L243,32.44387058332429L245.25,32.84429443427843L247.5,33.24882138102606" style="fill: none;" fill="none"></path></g></g></g></g><g opacity="0.2"><g><g><g><path stroke="rgb(255, 112, 67)" stroke-width="2px" d="M24.75,156.35176484286785L27,140.61824210733175L29.25,124.88470838218929L31.5,109.15118564665318L33.75,93.41765192151071L36,77.68411819636822L38.25,61.95058447122576L40.5,46.21707272529604L42.75,30.483517020940788L45,14.75000527501109L47.25,14.752422988414784L49.5,14.759720087051404L51.75,14.771830633282688L54,14.788798585534108L56.25,14.810623943805707L58.5,14.837306708097485L60.75,14.868824899196651L63,14.905178517103208L65.25,14.94641152024271L67.5,14.992457970976856L69.75,15.043339848518391L72,15.099079132080105L74.25,15.15963186323644L76.5,15.225042000412953L78.75,15.29526558518411L81,15.370324596762677L83.25,15.450219035148633L85.5,15.534926921129253L87.75,15.624448254704495L90,15.71878303587438L92.25,15.817931264638927L94.5,15.921892940998097L96.75,16.03064608573916L99,16.14421267807485L101.25,16.262548759579683L103.5,16.385698288679144L105.75,16.51361730694773L108,16.64630581438544L110.25,16.783785790205027L112.5,16.926035255193725L114.75,17.0730322301388L117,17.224776715040232L119.25,17.381290689110777L121.5,17.54253019392493L123.75,17.708517208695426L126,17.879229754209533L128.25,18.054645851254485L130.5,18.234809458255793L132.75,18.419654637575164L135,18.609203368425394L137.25,18.803455650806452L139.5,19.002389505505587L141.75,19.2060049325228L144,19.414257973432555L146.25,19.627192586660406L148.5,19.844786792993567L150.75,20.06699663400652L153,20.293866068124785L155.25,20.52535113692286L157.5,20.76142986118795L159.75,21.00212422013285L162,21.247412234544775L164.25,21.49727192521096L166.5,21.751725271344192L168.75,22.010728314518936L171,22.27428105473519L173.25,22.542383491992958L175.5,22.81501364707949L177.75,23.092171519994743L180,23.373813152313247L182.25,23.659982502460494L184.5,23.950613632798202L186.75,24.24572852253916L189,24.54528321325781L191.25,24.84932166337969L193.5,25.157777935266516L195.75,25.470652028918288L198,25.787921965122237L200.25,26.1096317023039L202.5,26.435693323612227L204.75,26.766106829047217L207,27.10089419782164L209.25,27.44005542993547L211.5,27.78350260853768L213.75,28.13127969205381L216,28.483386680483832L218.25,28.83973565697672L220.5,29.20037057995797L222.75,29.56526947021485L225,29.93438836932183L227.25,30.307749256491675L229.5,30.685330152511618L231.75,31.067087098956122L234,31.453064054250724L236.25,31.843173101544394L238.5,32.23741424083711L240.75,32.63580945134164L243,33.038314774632475L245.25,33.444930210709586L247.5,33.85561180114748" style="fill: none;" fill="none"></path></g></g></g></g></g></g><g transform="translate(60, 177)" clip-path="url(#clip_1)"><clipPath id="clip_1"><rect width="270" height="23"></rect></clipPath><g><g><line x1="0" y1="0" x2="0" y2="5" style="visibility: inherit;" fill="rgb(0, 0, 0)" stroke="rgb(204, 204, 204)" stroke-width="1px"></line><line x1="22.5" y1="0" x2="22.5" y2="5" style="visibility: inherit;" fill="rgb(0, 0, 0)" stroke="rgb(204, 204, 204)" stroke-width="1px"></line><line x1="45" y1="0" x2="45" y2="5" style="visibility: inherit;" fill="rgb(0, 0, 0)" stroke="rgb(204, 204, 204)" stroke-width="1px"></line><line x1="67.5" y1="0" x2="67.5" y2="5" style="visibility: inherit;" fill="rgb(0, 0, 0)" stroke="rgb(204, 204, 204)" stroke-width="1px"></line><line x1="90" y1="0" x2="90" y2="5" style="visibility: inherit;" fill="rgb(0, 0, 0)" stroke="rgb(204, 204, 204)" stroke-width="1px"></line><line x1="112.5" y1="0" x2="112.5" y2="5" style="visibility: inherit;" fill="rgb(0, 0, 0)" stroke="rgb(204, 204, 204)" stroke-width="1px"></line><line x1="135" y1="0" x2="135" y2="5" style="visibility: inherit;" fill="rgb(0, 0, 0)" stroke="rgb(204, 204, 204)" stroke-width="1px"></line><line x1="157.5" y1="0" x2="157.5" y2="5" style="visibility: inherit;" fill="rgb(0, 0, 0)" stroke="rgb(204, 204, 204)" stroke-width="1px"></line><line x1="180" y1="0" x2="180" y2="5" style="visibility: inherit;" fill="rgb(0, 0, 0)" stroke="rgb(204, 204, 204)" stroke-width="1px"></line><line x1="202.5" y1="0" x2="202.5" y2="5" style="visibility: inherit;" fill="rgb(0, 0, 0)" stroke="rgb(204, 204, 204)" stroke-width="1px"></line><line x1="225" y1="0" x2="225" y2="5" style="visibility: inherit;" fill="rgb(0, 0, 0)" stroke="rgb(204, 204, 204)" stroke-width="1px"></line><line x1="247.5" y1="0" x2="247.5" y2="5" style="visibility: inherit;" fill="rgb(0, 0, 0)" stroke="rgb(204, 204, 204)" stroke-width="1px"></line><line x1="270" y1="0" x2="270" y2="5" style="visibility: inherit;" fill="rgb(0, 0, 0)" stroke="rgb(204, 204, 204)" stroke-width="1px"></line></g><g transform="translate(0, 8)"><text x="0" y="0" dx="0em" dy="0.95em" style="text-anchor: middle; visibility: hidden; font-family: Roboto, sans-serif; font-size: 12px; font-weight: 200;" fill="rgb(255, 255, 255)" stroke="none" stroke-width="1px">-1k</text><text x="22.5" y="0" dx="0em" dy="0.95em" style="text-anchor: middle; visibility: inherit; font-family: Roboto, sans-serif; font-size: 12px; font-weight: 200;" fill="rgb(255, 255, 255)" stroke="none" stroke-width="1px">0</text><text x="45" y="0" dx="0em" dy="0.95em" style="text-anchor: middle; visibility: inherit; font-family: Roboto, sans-serif; font-size: 12px; font-weight: 200;" fill="rgb(255, 255, 255)" stroke="none" stroke-width="1px">1k</text><text x="67.5" y="0" dx="0em" dy="0.95em" style="text-anchor: middle; visibility: inherit; font-family: Roboto, sans-serif; font-size: 12px; font-weight: 200;" fill="rgb(255, 255, 255)" stroke="none" stroke-width="1px">2k</text><text x="90" y="0" dx="0em" dy="0.95em" style="text-anchor: middle; visibility: inherit; font-family: Roboto, sans-serif; font-size: 12px; font-weight: 200;" fill="rgb(255, 255, 255)" stroke="none" stroke-width="1px">3k</text><text x="112.5" y="0" dx="0em" dy="0.95em" style="text-anchor: middle; visibility: inherit; font-family: Roboto, sans-serif; font-size: 12px; font-weight: 200;" fill="rgb(255, 255, 255)" stroke="none" stroke-width="1px">4k</text><text x="135" y="0" dx="0em" dy="0.95em" style="text-anchor: middle; visibility: inherit; font-family: Roboto, sans-serif; font-size: 12px; font-weight: 200;" fill="rgb(255, 255, 255)" stroke="none" stroke-width="1px">5k</text><text x="157.5" y="0" dx="0em" dy="0.95em" style="text-anchor: middle; visibility: inherit; font-family: Roboto, sans-serif; font-size: 12px; font-weight: 200;" fill="rgb(255, 255, 255)" stroke="none" stroke-width="1px">6k</text><text x="180" y="0" dx="0em" dy="0.95em" style="text-anchor: middle; visibility: inherit; font-family: Roboto, sans-serif; font-size: 12px; font-weight: 200;" fill="rgb(255, 255, 255)" stroke="none" stroke-width="1px">7k</text><text x="202.5" y="0" dx="0em" dy="0.95em" style="text-anchor: middle; visibility: inherit; font-family: Roboto, sans-serif; font-size: 12px; font-weight: 200;" fill="rgb(255, 255, 255)" stroke="none" stroke-width="1px">8k</text><text x="225" y="0" dx="0em" dy="0.95em" style="text-anchor: middle; visibility: inherit; font-family: Roboto, sans-serif; font-size: 12px; font-weight: 200;" fill="rgb(255, 255, 255)" stroke="none" stroke-width="1px">9k</text><text x="247.5" y="0" dx="0em" dy="0.95em" style="text-anchor: middle; visibility: inherit; font-family: Roboto, sans-serif; font-size: 12px; font-weight: 200;" fill="rgb(255, 255, 255)" stroke="none" stroke-width="1px">10k</text><text x="270" y="0" dx="0em" dy="0.95em" style="text-anchor: middle; visibility: hidden; font-family: Roboto, sans-serif; font-size: 12px; font-weight: 200;" fill="rgb(255, 255, 255)" stroke="none" stroke-width="1px">11k</text></g><line x1="0" y1="0" x2="270" y2="0" fill="rgb(0, 0, 0)" stroke="rgb(204, 204, 204)" stroke-width="1px"></line></g></g></g></g></svg>