<svg viewBox="0 0 330 200" xmlns="http://www.w3.org/2000/svg"><g><g><g><g><g><line x1="50" y1="177" x2="45" y2="177" style="visibility: inherit;" fill="rgb(0, 0, 0)" stroke="rgb(204, 204, 204)" stroke-width="1px"></line><line x1="50" y1="159.3" x2="45" y2="159.3" style="visibility: inherit;" fill="rgb(0, 0, 0)" stroke="rgb(204, 204, 204)" stroke-width="1px"></line><line x1="50" y1="141.6" x2="45" y2="141.6" style="visibility: inherit;" fill="rgb(0, 0, 0)" stroke="rgb(204, 204, 204)" stroke-width="1px"></line><line x1="50" y1="123.89999999999999" x2="45" y2="123.89999999999999" style="visibility: inherit;" fill="rgb(0, 0, 0)" stroke="rgb(204, 204, 204)" stroke-width="1px"></line><line x1="50" y1="106.19999999999997" x2="45" y2="106.19999999999997" style="visibility: inherit;" fill="rgb(0, 0, 0)" stroke="rgb(204, 204, 204)" stroke-width="1px"></line><line x1="50" y1="88.49999999999999" x2="45" y2="88.49999999999999" style="visibility: inherit;" fill="rgb(0, 0, 0)" stroke="rgb(204, 204, 204)" stroke-width="1px"></line><line x1="50" y1="70.79999999999998" x2="45" y2="70.79999999999998" style="visibility: inherit;" fill="rgb(0, 0, 0)" stroke="rgb(204, 204, 204)" stroke-width="1px"></line><line x1="50" y1="53.099999999999966" x2="45" y2="53.099999999999966" style="visibility: inherit;" fill="rgb(0, 0, 0)" stroke="rgb(204, 204, 204)" stroke-width="1px"></line><line x1="50" y1="35.39999999999999" x2="45" y2="35.39999999999999" style="visibility: inherit;" fill="rgb(0, 0, 0)" stroke="rgb(204, 204, 204)" stroke-width="1px"></line><line x1="50" y1="17.699999999999978" x2="45" y2="17.699999999999978" style="visibility: inherit;" fill="rgb(0, 0, 0)" stroke="rgb(204, 204, 204)" stroke-width="1px"></line><line x1="50" y1="0" x2="45" y2="0" style="visibility: inherit;" fill="rgb(0, 0, 0)" stroke="rgb(204, 204, 204)" stroke-width="1px"></line></g><g transform="translate(40, 0)"><text x="0" y="177" dx="0em" dy="0.3em" style="text-anchor: end; visibility: hidden; font-family: Roboto, sans-serif; font-size: 12px; font-weight: 200;" fill="rgb(255, 255, 255)" stroke="none" stroke-width="1px">0.2</text><text x="0" y="159.3" dx="0em" dy="0.3em" style="text-anchor: end; visibility: inherit; font-family: Roboto, sans-serif; font-size: 12px; font-weight: 200;" fill="rgb(255, 255, 255)" stroke="none" stroke-width="1px">0.25</text><text x="0" y="141.6" dx="0em" dy="0.3em" style="text-anchor: end; visibility: hidden; font-family: Roboto, sans-serif; font-size: 12px; font-weight: 200;" fill="rgb(255, 255, 255)" stroke="none" stroke-width="1px">0.3</text><text x="0" y="123.89999999999999" dx="0em" dy="0.3em" style="text-anchor: end; visibility: inherit; font-family: Roboto, sans-serif; font-size: 12px; font-weight: 200;" fill="rgb(255, 255, 255)" stroke="none" stroke-width="1px">0.35</text><text x="0" y="106.19999999999997" dx="0em" dy="0.3em" style="text-anchor: end; visibility: hidden; font-family: Roboto, sans-serif; font-size: 12px; font-weight: 200;" fill="rgb(255, 255, 255)" stroke="none" stroke-width="1px">0.4</text><text x="0" y="88.49999999999999" dx="0em" dy="0.3em" style="text-anchor: end; visibility: inherit; font-family: Roboto, sans-serif; font-size: 12px; font-weight: 200;" fill="rgb(255, 255, 255)" stroke="none" stroke-width="1px">0.45</text><text x="0" y="70.79999999999998" dx="0em" dy="0.3em" style="text-anchor: end; visibility: hidden; font-family: Roboto, sans-serif; font-size: 12px; font-weight: 200;" fill="rgb(255, 255, 255)" stroke="none" stroke-width="1px">0.5</text><text x="0" y="53.099999999999966" dx="0em" dy="0.3em" style="text-anchor: end; visibility: inherit; font-family: Roboto, sans-serif; font-size: 12px; font-weight: 200;" fill="rgb(255, 255, 255)" stroke="none" stroke-width="1px">0.55</text><text x="0" y="35.39999999999999" dx="0em" dy="0.3em" style="text-anchor: end; visibility: hidden; font-family: Roboto, sans-serif; font-size: 12px; font-weight: 200;" fill="rgb(255, 255, 255)" stroke="none" stroke-width="1px">0.6</text><text x="0" y="17.699999999999978" dx="0em" dy="0.3em" style="text-anchor: end; visibility: inherit; font-family: Roboto, sans-serif; font-size: 12px; font-weight: 200;" fill="rgb(255, 255, 255)" stroke="none" stroke-width="1px">0.65</text><text x="0" y="0" dx="0em" dy="0.3em" style="text-anchor: end; visibility: hidden; font-family: Roboto, sans-serif; font-size: 12px; font-weight: 200;" fill="rgb(255, 255, 255)" stroke="none" stroke-width="1px">0.7</text></g><line x1="50" y1="0" x2="50" y2="177" fill="rgb(0, 0, 0)" stroke="rgb(204, 204, 204)" stroke-width="1px"></line></g></g><g transform="translate(50, 0)" clip-path="url(#clip_0)"><clipPath id="clip_0"><rect width="280" height="177"></rect></clipPath><g><g><g><line x1="0" y1="0" x2="0" y2="177" fill="rgb(0, 0, 0)" stroke="rgb(189, 189, 189)" stroke-width="1px" opacity="0.25"></line><line x1="23.333333333333332" y1="0" x2="23.333333333333332" y2="177" fill="rgb(0, 0, 0)" stroke="rgb(189, 189, 189)" stroke-width="1px" opacity="0.25"></line><line x1="46.666666666666664" y1="0" x2="46.666666666666664" y2="177" fill="rgb(0, 0, 0)" stroke="rgb(189, 189, 189)" stroke-width="1px" opacity="0.25"></line><line x1="70" y1="0" x2="70" y2="177" fill="rgb(0, 0, 0)" stroke="rgb(189, 189, 189)" stroke-width="1px" opacity="0.25"></line><line x1="93.33333333333333" y1="0" x2="93.33333333333333" y2="177" fill="rgb(0, 0, 0)" stroke="rgb(189, 189, 189)" stroke-width="1px" opacity="0.25"></line><line x1="116.66666666666667" y1="0" x2="116.66666666666667" y2="177" fill="rgb(0, 0, 0)" stroke="rgb(189, 189, 189)" stroke-width="1px" opacity="0.25"></line><line x1="140" y1="0" x2="140" y2="177" fill="rgb(0, 0, 0)" stroke="rgb(189, 189, 189)" stroke-width="1px" opacity="0.25"></line><line x1="163.33333333333334" y1="0" x2="163.33333333333334" y2="177" fill="rgb(0, 0, 0)" stroke="rgb(189, 189, 189)" stroke-width="1px" opacity="0.25"></line><line x1="186.66666666666666" y1="0" x2="186.66666666666666" y2="177" fill="rgb(0, 0, 0)" stroke="rgb(189, 189, 189)" stroke-width="1px" opacity="0.25"></line><line x1="210" y1="0" x2="210" y2="177" fill="rgb(0, 0, 0)" stroke="rgb(189, 189, 189)" stroke-width="1px" opacity="0.25"></line><line x1="233.33333333333334" y1="0" x2="233.33333333333334" y2="177" fill="rgb(0, 0, 0)" stroke="rgb(189, 189, 189)" stroke-width="1px" opacity="0.25"></line><line x1="256.66666666666663" y1="0" x2="256.66666666666663" y2="177" fill="rgb(0, 0, 0)" stroke="rgb(189, 189, 189)" stroke-width="1px" opacity="0.25"></line><line x1="280" y1="0" x2="280" y2="177" fill="rgb(0, 0, 0)" stroke="rgb(189, 189, 189)" stroke-width="1px" opacity="0.25"></line></g><g><line x1="0" y1="177" x2="280" y2="177" fill="rgb(0, 0, 0)" stroke="rgb(189, 189, 189)" stroke-width="1px" opacity="0.25"></line><line x1="0" y1="159.3" x2="280" y2="159.3" fill="rgb(0, 0, 0)" stroke="rgb(189, 189, 189)" stroke-width="1px" opacity="0.25"></line><line x1="0" y1="141.6" x2="280" y2="141.6" fill="rgb(0, 0, 0)" stroke="rgb(189, 189, 189)" stroke-width="1px" opacity="0.25"></line><line x1="0" y1="123.89999999999999" x2="280" y2="123.89999999999999" fill="rgb(0, 0, 0)" stroke="rgb(189, 189, 189)" stroke-width="1px" opacity="0.25"></line><line x1="0" y1="106.19999999999997" x2="280" y2="106.19999999999997" fill="rgb(0, 0, 0)" stroke="rgb(189, 189, 189)" stroke-width="1px" opacity="0.25"></line><line x1="0" y1="88.49999999999999" x2="280" y2="88.49999999999999" fill="rgb(0, 0, 0)" stroke="rgb(189, 189, 189)" stroke-width="1px" opacity="0.25"></line><line x1="0" y1="70.79999999999998" x2="280" y2="70.79999999999998" fill="rgb(0, 0, 0)" stroke="rgb(189, 189, 189)" stroke-width="1px" opacity="0.25"></line><line x1="0" y1="53.099999999999966" x2="280" y2="53.099999999999966" fill="rgb(0, 0, 0)" stroke="rgb(189, 189, 189)" stroke-width="1px" opacity="0.25"></line><line x1="0" y1="35.39999999999999" x2="280" y2="35.39999999999999" fill="rgb(0, 0, 0)" stroke="rgb(189, 189, 189)" stroke-width="1px" opacity="0.25"></line><line x1="0" y1="17.699999999999978" x2="280" y2="17.699999999999978" fill="rgb(0, 0, 0)" stroke="rgb(189, 189, 189)" stroke-width="1px" opacity="0.25"></line><line x1="0" y1="0" x2="280" y2="0" fill="rgb(0, 0, 0)" stroke="rgb(189, 189, 189)" stroke-width="1px" opacity="0.25"></line></g></g></g><g><g><line x1="0" y1="247.8" x2="280" y2="247.8" fill="rgb(0, 0, 0)" stroke="rgb(153, 153, 153)" stroke-width="1.5px"></line></g></g><g><g><line x1="23.333333333333332" y1="0" x2="23.333333333333332" y2="177" fill="rgb(0, 0, 0)" stroke="rgb(153, 153, 153)" stroke-width="1.5px"></line></g></g><g><g><g><g><g><path stroke="rgb(255, 112, 67)" stroke-width="2px" d="M25.666666666666664,19.69193701744078L28,56.2843195080757L30.333333333333336,27.237314994481125L32.666666666666664,68.29201724546799L35,87.49703383804776L37.333333333333336,41.57968478830233L39.666666666666664,54.347269259906255L42,74.84363001132353L44.33333333333333,75.7803210106195L46.666666666666664,82.5836876824502L49,97.26864699973206L51.33333333333333,21.720610680034582L53.66666666666667,55.795245041244314L56,77.35656384738466L58.333333333333336,65.65744413454719L60.66666666666667,68.68854002720316L63,79.07727621438784L65.33333333333333,79.20495584706919L67.66666666666667,80.85956765408865L70,68.87344542342515L72.33333333333334,84.07390228691905L74.66666666666667,95.53648275839019L77,114.19487852633411L79.33333333333333,99.31313247359687L81.66666666666667,112.69153997495289L84,74.69166377342489L86.33333333333334,92.44290310429739L88.66666666666666,110.70286852582309L91,84.63922132548149L93.33333333333333,100.64256700433093L95.66666666666667,117.41176016890356L98,96.70997737970649L100.33333333333333,82.63156772576694L102.66666666666666,84.58538435408276L105,52.58937476532698L107.33333333333334,54.39533598889239L109.66666666666667,89.33747872799152L112,76.97575061672046L114.33333333333333,95.04145671788308L116.66666666666667,73.59033475072754L119,87.57263292570742L121.33333333333334,89.53851268922415L123.66666666666666,89.49222925563386L126,93.79694816222697L128.33333333333331,102.85723567073892L130.66666666666666,95.06712817659283L133,109.29995245218075L135.33333333333334,97.28976110002132L137.66666666666666,109.97562438612822L140,94.60635832276819L142.33333333333331,89.20821532322458L144.66666666666669,107.98776164008773L147,97.49382797211722L149.33333333333334,117.72442652305288L151.66666666666666,119.59582062197042L154,96.38417438763881L156.33333333333334,107.85259644567338L158.66666666666666,100.82461445080757L161,117.67229904978124L163.33333333333334,129.9110605564639L165.66666666666666,95.90273347895788L168,116.06630279184284L170.33333333333331,121.387101726299L172.66666666666669,119.50345904145567L175,111.14850011893463L177.33333333333331,128.5945089258454L179.66666666666669,141.6110417555393L182,120.48781273547537L184.33333333333334,123.96216962923842L186.66666666666666,121.69779878491302L189,135.79370956918086L191.33333333333334,128.27779248059085L193.66666666666666,141.288446640374L196,134.08279698336227L198.33333333333334,131.95839894082604L200.66666666666666,127.09882461706675L203,136.7490045957558L205.33333333333331,133.60751027183488L207.66666666666669,135.53429447124455L210,118.43274568146501L212.33333333333331,123.58606549397724L214.66666666666669,146.53691895899544L217,141.53093421040398L219.33333333333334,151.38381976353182L221.66666666666666,153.25988067190082L224,148.98657293439052L226.33333333333334,148.3654508264073L228.66666666666666,139.2934234375482L231,130.41575280158074L233.33333333333334,148.27426517324656L235.66666666666666,157.074860081178L238,121.3252462489021L240.33333333333331,128.1224743284352L242.66666666666669,144.50059878096386L245,144.5435369638527L247.33333333333331,144.89607625889326L249.66666666666669,140.9675348334762L252,140.99656756241637L254.33333333333334,131.7540682001085L256.66666666666663,145.90938449878522" style="fill: none;" fill="none"></path></g></g></g></g><g opacity="0.2"><g><g><g><path stroke="rgb(255, 112, 67)" stroke-width="2px" d="M25.666666666666664,19.69193701744078L28,78.23974900245665L30.333333333333336,-0.6478093385696961L32.666666666666664,116.57234709262846L35,112.57110350131987L37.333333333333336,-21.940539193153437L39.666666666666664,72.60511933565138L42,104.72752075195311L44.33333333333333,77.16175829172133L46.666666666666664,92.68589429855345L49,119.16289447546004L51.33333333333333,-91.19031472206122L53.66666666666667,106.79593698978422L56,109.65630118846892L58.333333333333336,48.1225164413452L60.66666666666667,73.23304610252379L63,94.65598433017729L65.33333333333333,79.39644287824629L67.66666666666667,83.3412333011627L70,50.895357656478865L72.33333333333334,106.87375395298002L74.66666666666667,112.72997628450392L77,142.18210380077363L79.33333333333333,76.9906896829605L81.66666666666667,132.75905613899232L84,17.692011523246748L86.33333333333334,119.06971668004988L88.66666666666666,138.0927886247635L91,45.54377453327177L93.33333333333333,124.64757667779921L95.66666666666667,142.56554435491563L98,65.65730731487272L100.33333333333333,61.51395492553709L102.66666666666666,87.51610915660856L105,4.595361757278427L107.33333333333334,57.1042777776718L109.66666666666667,141.75069229602815L112,58.43315856456755L114.33333333333333,122.1400157690048L116.66666666666667,41.413651871681196L119,108.54608016014097L121.33333333333334,92.48733233213423L123.66666666666666,89.42280410528181L126,100.25402652025221L128.33333333333331,116.44766693115233L130.66666666666666,83.38196693658827L133,130.6491888642311L135.33333333333334,79.27447407245634L137.66666666666666,129.00441931486128L140,71.55245922803877L142.33333333333331,81.11100082397459L144.66666666666669,136.15708111524583L147,81.7529274702072L149.33333333333334,148.0703243494034L151.66666666666666,122.40291177034376L154,61.56670503616331L156.33333333333334,125.05522953271864L158.66666666666666,90.28264145851134L161,142.94382594823838L163.33333333333334,148.26920281648637L165.66666666666666,44.8902428627014L168,146.31165676116944L170.33333333333331,129.36830012798308L172.66666666666669,116.67799501419066L175,98.61606173515318L177.33333333333331,154.7635221362114L179.66666666666669,161.13584100008012L182,88.80296920537947L184.33333333333334,129.17370496988295L186.66666666666666,118.30124251842497L189,156.9375757455826L191.33333333333334,117.00391684770582L193.66666666666666,160.80442788004876L196,123.27432249784468L198.33333333333334,128.77180187702177L200.66666666666666,119.80946313142775L203,151.22427456378938L205.33333333333331,128.8952687859535L207.66666666666669,138.42447077035905L210,92.78042249679564L212.33333333333331,131.31604521274565L214.66666666666669,180.96319915652276L217,134.0219570875168L219.33333333333334,166.16314809322358L221.66666666666666,156.07397203445436L224,142.576611328125L226.33333333333334,147.43376766443254L228.66666666666666,125.68538235425947L231,117.09924684762953L233.33333333333334,175.06203373074533L235.66666666666666,170.2757524430752L238,67.70082550048826L240.33333333333331,138.31831644773484L242.66666666666669,169.06778545975686L245,144.6079442381859L247.33333333333331,145.42488520145417L249.66666666666669,135.07472269535066L252,141.04011665582658L254.33333333333334,117.89031915664671L256.66666666666663,167.14235894680024" style="fill: none;" fill="none"></path></g></g></g></g></g></g><g transform="translate(50, 177)" clip-path="url(#clip_1)"><clipPath id="clip_1"><rect width="280" height="23"></rect></clipPath><g><g><line x1="0" y1="0" x2="0" y2="5" style="visibility: inherit;" fill="rgb(0, 0, 0)" stroke="rgb(204, 204, 204)" stroke-width="1px"></line><line x1="23.333333333333332" y1="0" x2="23.333333333333332" y2="5" style="visibility: inherit;" fill="rgb(0, 0, 0)" stroke="rgb(204, 204, 204)" stroke-width="1px"></line><line x1="46.666666666666664" y1="0" x2="46.666666666666664" y2="5" style="visibility: inherit;" fill="rgb(0, 0, 0)" stroke="rgb(204, 204, 204)" stroke-width="1px"></line><line x1="70" y1="0" x2="70" y2="5" style="visibility: inherit;" fill="rgb(0, 0, 0)" stroke="rgb(204, 204, 204)" stroke-width="1px"></line><line x1="93.33333333333333" y1="0" x2="93.33333333333333" y2="5" style="visibility: inherit;" fill="rgb(0, 0, 0)" stroke="rgb(204, 204, 204)" stroke-width="1px"></line><line x1="116.66666666666667" y1="0" x2="116.66666666666667" y2="5" style="visibility: inherit;" fill="rgb(0, 0, 0)" stroke="rgb(204, 204, 204)" stroke-width="1px"></line><line x1="140" y1="0" x2="140" y2="5" style="visibility: inherit;" fill="rgb(0, 0, 0)" stroke="rgb(204, 204, 204)" stroke-width="1px"></line><line x1="163.33333333333334" y1="0" x2="163.33333333333334" y2="5" style="visibility: inherit;" fill="rgb(0, 0, 0)" stroke="rgb(204, 204, 204)" stroke-width="1px"></line><line x1="186.66666666666666" y1="0" x2="186.66666666666666" y2="5" style="visibility: inherit;" fill="rgb(0, 0, 0)" stroke="rgb(204, 204, 204)" stroke-width="1px"></line><line x1="210" y1="0" x2="210" y2="5" style="visibility: inherit;" fill="rgb(0, 0, 0)" stroke="rgb(204, 204, 204)" stroke-width="1px"></line><line x1="233.33333333333334" y1="0" x2="233.33333333333334" y2="5" style="visibility: inherit;" fill="rgb(0, 0, 0)" stroke="rgb(204, 204, 204)" stroke-width="1px"></line><line x1="256.66666666666663" y1="0" x2="256.66666666666663" y2="5" style="visibility: inherit;" fill="rgb(0, 0, 0)" stroke="rgb(204, 204, 204)" stroke-width="1px"></line><line x1="280" y1="0" x2="280" y2="5" style="visibility: inherit;" fill="rgb(0, 0, 0)" stroke="rgb(204, 204, 204)" stroke-width="1px"></line></g><g transform="translate(0, 8)"><text x="0" y="0" dx="0em" dy="0.95em" style="text-anchor: middle; visibility: hidden; font-family: Roboto, sans-serif; font-size: 12px; font-weight: 200;" fill="rgb(255, 255, 255)" stroke="none" stroke-width="1px">-1k</text><text x="23.333333333333332" y="0" dx="0em" dy="0.95em" style="text-anchor: middle; visibility: inherit; font-family: Roboto, sans-serif; font-size: 12px; font-weight: 200;" fill="rgb(255, 255, 255)" stroke="none" stroke-width="1px">0</text><text x="46.666666666666664" y="0" dx="0em" dy="0.95em" style="text-anchor: middle; visibility: inherit; font-family: Roboto, sans-serif; font-size: 12px; font-weight: 200;" fill="rgb(255, 255, 255)" stroke="none" stroke-width="1px">1k</text><text x="70" y="0" dx="0em" dy="0.95em" style="text-anchor: middle; visibility: inherit; font-family: Roboto, sans-serif; font-size: 12px; font-weight: 200;" fill="rgb(255, 255, 255)" stroke="none" stroke-width="1px">2k</text><text x="93.33333333333333" y="0" dx="0em" dy="0.95em" style="text-anchor: middle; visibility: inherit; font-family: Roboto, sans-serif; font-size: 12px; font-weight: 200;" fill="rgb(255, 255, 255)" stroke="none" stroke-width="1px">3k</text><text x="116.66666666666667" y="0" dx="0em" dy="0.95em" style="text-anchor: middle; visibility: inherit; font-family: Roboto, sans-serif; font-size: 12px; font-weight: 200;" fill="rgb(255, 255, 255)" stroke="none" stroke-width="1px">4k</text><text x="140" y="0" dx="0em" dy="0.95em" style="text-anchor: middle; visibility: inherit; font-family: Roboto, sans-serif; font-size: 12px; font-weight: 200;" fill="rgb(255, 255, 255)" stroke="none" stroke-width="1px">5k</text><text x="163.33333333333334" y="0" dx="0em" dy="0.95em" style="text-anchor: middle; visibility: inherit; font-family: Roboto, sans-serif; font-size: 12px; font-weight: 200;" fill="rgb(255, 255, 255)" stroke="none" stroke-width="1px">6k</text><text x="186.66666666666666" y="0" dx="0em" dy="0.95em" style="text-anchor: middle; visibility: inherit; font-family: Roboto, sans-serif; font-size: 12px; font-weight: 200;" fill="rgb(255, 255, 255)" stroke="none" stroke-width="1px">7k</text><text x="210" y="0" dx="0em" dy="0.95em" style="text-anchor: middle; visibility: inherit; font-family: Roboto, sans-serif; font-size: 12px; font-weight: 200;" fill="rgb(255, 255, 255)" stroke="none" stroke-width="1px">8k</text><text x="233.33333333333334" y="0" dx="0em" dy="0.95em" style="text-anchor: middle; visibility: inherit; font-family: Roboto, sans-serif; font-size: 12px; font-weight: 200;" fill="rgb(255, 255, 255)" stroke="none" stroke-width="1px">9k</text><text x="256.66666666666663" y="0" dx="0em" dy="0.95em" style="text-anchor: middle; visibility: inherit; font-family: Roboto, sans-serif; font-size: 12px; font-weight: 200;" fill="rgb(255, 255, 255)" stroke="none" stroke-width="1px">10k</text><text x="280" y="0" dx="0em" dy="0.95em" style="text-anchor: middle; visibility: hidden; font-family: Roboto, sans-serif; font-size: 12px; font-weight: 200;" fill="rgb(255, 255, 255)" stroke="none" stroke-width="1px">11k</text></g><line x1="0" y1="0" x2="280" y2="0" fill="rgb(0, 0, 0)" stroke="rgb(204, 204, 204)" stroke-width="1px"></line></g></g></g></g></svg>